<svg version="1.1" id="Layer_1" xmlns="http://www.w3.org/2000/svg" xmlns:xlink="http://www.w3.org/1999/xlink" x="0px" y="0px"
	 width="100%" viewBox="0 0 1676 464" enable-background="new 0 0 1676 464" xml:space="preserve">
<path fill="#030405" opacity="1.000000" stroke="none" 
	d="
M993.000000,465.000000 
	C662.365295,465.000000 331.730591,465.000000 1.047953,465.000000 
	C1.047953,310.380280 1.047953,155.760513 1.047953,1.070382 
	C559.565735,1.070382 1118.131470,1.070382 1676.848633,1.070382 
	C1676.848633,155.550644 1676.848633,310.101501 1676.848633,465.000000 
	C1453.637451,465.000000 1230.274658,465.000000 1006.519775,464.534912 
	C1006.127686,456.224274 1006.127686,448.378723 1006.127686,439.667206 
	C1015.932861,447.915802 1025.690063,448.623718 1035.177490,442.514465 
	C1044.738770,436.357544 1049.129028,426.484741 1046.353271,415.652557 
	C1040.625732,393.300598 1026.534546,388.532410 1006.386597,398.996063 
	C1006.222168,397.974976 1006.000244,396.596527 1005.797546,395.338013 
	C1001.569092,395.338013 997.663208,395.338013 993.340515,395.338013 
	C993.340515,400.314880 993.362671,404.950470 993.336548,409.585785 
	C993.232544,428.057251 993.113525,446.528595 993.000000,465.000000 
M449.089661,277.449799 
	C439.049133,277.546722 429.008575,277.643646 418.081268,277.448700 
	C404.151398,277.421844 390.221344,277.340973 376.291718,277.385590 
	C365.526855,277.420074 354.762512,277.611755 343.111725,277.428314 
	C337.134277,277.428314 331.156830,277.428314 324.134827,277.428314 
	C328.198242,272.951355 331.288208,269.546936 334.971436,265.878296 
	C337.188232,263.630981 339.415314,261.393707 341.620209,259.134766 
	C358.794159,241.539612 375.963867,223.940308 393.753113,206.037354 
	C396.062653,203.643875 398.366150,201.244537 400.682709,198.857864 
	C413.541290,185.610245 426.403107,172.365738 439.866058,158.858078 
	C456.624054,141.678757 473.382050,124.499435 490.768280,107.018097 
	C492.501160,104.330299 495.195221,101.834808 495.778992,98.917107 
	C497.273987,91.445267 497.863220,83.789467 498.752106,76.199905 
	C499.512909,69.703865 500.186920,63.197659 500.906921,56.626617 
	C486.483246,56.626617 472.710938,56.626617 458.041138,56.386623 
	C441.132141,56.359772 424.223022,56.289860 407.314148,56.323360 
	C398.211365,56.341393 389.108887,56.536671 379.103088,56.384113 
	C362.404694,56.472656 345.706329,56.561203 328.104828,56.380802 
	C313.407227,56.471149 298.709625,56.561497 283.109283,56.379749 
	C274.829193,56.379749 266.549133,56.379749 257.686554,56.379749 
	C259.723907,74.218735 261.696625,91.492020 263.687805,108.926605 
	C282.108063,108.926605 300.052917,108.926605 318.920044,109.109032 
	C333.279266,109.048431 347.638489,108.987823 362.919708,109.111290 
	C379.611847,109.049606 396.304016,108.987923 413.588898,109.105789 
	C414.164001,109.225967 414.739105,109.346146 415.868652,109.582184 
	C413.238129,111.480133 411.048309,113.060135 408.179962,114.857536 
	C403.668365,117.656860 399.126831,120.409218 394.650818,123.264320 
	C381.382050,131.728073 368.139069,140.232361 354.191284,148.876144 
	C348.698242,152.262573 343.170074,155.593597 337.718536,159.045624 
	C319.799988,170.392105 301.909241,181.782471 283.331604,193.252899 
	C280.945618,194.752106 278.429810,196.087494 276.234497,197.827301 
	C275.294312,198.572433 274.406464,200.230896 274.537262,201.352844 
	C276.472687,217.955048 278.583496,234.536819 280.631683,252.020599 
	C283.664398,278.019104 286.697083,304.017609 289.723572,329.962738 
	C305.718567,329.962738 320.860107,329.962738 336.923096,330.147919 
	C350.282990,330.087097 363.642883,330.026245 377.924805,330.145782 
	C402.282928,330.083862 426.641083,330.021942 451.918488,330.154419 
	C457.194122,330.154419 462.469757,330.154419 467.884796,330.154419 
	C468.840149,321.772522 469.738373,313.891632 470.871216,305.174713 
	C471.969635,296.077179 473.068054,286.979614 474.183960,277.737091 
	C465.731110,277.737091 457.855164,277.737091 449.089661,277.449799 
M121.083115,56.714085 
	C109.182518,56.714085 97.281929,56.714085 84.762871,56.714085 
	C91.086319,74.026772 97.105469,90.633156 103.306427,107.171364 
	C103.681915,108.172813 105.501076,109.247269 106.651970,109.251106 
	C122.766960,109.304985 138.882553,109.178337 155.911469,109.308456 
	C158.736328,109.325233 161.593704,109.078148 164.378372,109.421242 
	C168.450623,109.922966 170.532776,108.272774 172.317520,104.618515 
	C176.600327,95.849518 181.433258,87.349922 186.012009,78.724533 
	C189.787048,71.613182 193.515945,64.477356 197.484009,56.936752 
	C171.788910,56.936752 146.893585,56.936752 121.083115,56.714085 
M712.614197,157.972580 
	C697.867981,131.655014 674.997681,118.669891 645.277405,116.767838 
	C615.420105,114.857010 591.853516,127.377525 571.484619,150.082565 
	C572.740662,139.251434 573.801697,130.101654 574.862244,120.956360 
	C554.733765,120.956360 535.162170,120.956360 515.404175,120.956360 
	C504.421722,211.706604 493.475555,302.157227 482.510559,392.763367 
	C502.651215,392.763367 522.251770,392.763367 542.003906,392.763367 
	C545.600769,363.187500 549.171509,333.826050 552.833862,303.711334 
	C563.477417,316.135406 574.271667,326.972961 589.537842,330.836578 
	C624.950867,339.799103 656.495361,331.326477 683.297363,306.942230 
	C706.870483,285.495636 719.147156,257.962952 722.987610,226.525955 
	C725.863953,202.981201 724.296143,180.083664 712.614197,157.972580 
M914.829834,124.608826 
	C879.983398,111.762161 846.001404,114.306290 813.022583,130.824524 
	C768.922241,152.913239 737.410339,201.202560 744.958069,254.797714 
	C748.638367,280.930450 761.174133,302.028595 783.064941,316.999908 
	C809.937378,335.378174 839.845825,338.729034 870.901306,332.234772 
	C908.295227,324.415100 937.026245,303.569336 956.501465,270.707886 
	C971.094666,246.084106 976.307556,219.208237 970.422913,191.107773 
	C963.850220,159.721680 945.107178,137.632385 914.829834,124.608826 
M1460.642334,128.849075 
	C1450.602051,122.617798 1439.626221,119.310898 1427.942627,117.776489 
	C1396.021606,113.584335 1366.895386,120.636703 1341.910278,140.906937 
	C1306.524658,169.614822 1290.481079,207.383835 1294.150391,252.786087 
	C1296.792480,285.477692 1312.502197,310.967224 1342.701904,324.563324 
	C1380.983643,341.798035 1419.013550,338.667053 1455.277344,317.332275 
	C1465.011108,311.605652 1473.636841,304.386505 1480.280151,296.978607 
	C1470.188721,286.370300 1460.467773,276.151581 1450.686646,265.869507 
	C1448.917603,267.217773 1447.330322,268.423553 1445.747070,269.634735 
	C1430.806152,281.064636 1414.412964,287.656586 1395.116211,287.136719 
	C1369.700317,286.452087 1353.551025,271.977386 1351.158813,245.996948 
	C1399.761475,245.996948 1448.324951,245.996948 1496.735596,245.996948 
	C1500.350830,235.026627 1501.921021,215.462448 1499.952637,196.045593 
	C1497.116089,168.063034 1485.821533,144.720596 1460.642334,128.849075 
M1280.928955,171.602371 
	C1281.921021,169.835831 1283.515869,168.160812 1283.800415,166.286850 
	C1284.996094,158.410980 1285.823730,150.478378 1286.740479,142.561249 
	C1287.573120,135.371048 1288.346802,128.173981 1289.196289,120.530899 
	C1272.479858,120.530899 1256.393677,120.530899 1240.076660,120.530899 
	C1242.213867,102.554047 1244.301514,84.994026 1246.415405,67.213776 
	C1226.444702,67.213776 1206.982300,67.213776 1186.991699,67.213776 
	C1184.832886,84.792160 1182.675659,102.357903 1180.429932,120.644379 
	C1172.104004,120.644379 1163.725708,120.644379 1155.416138,120.644379 
	C1153.338013,137.955612 1151.346802,154.542313 1149.285767,171.711182 
	C1157.774414,171.711182 1165.847046,171.711182 1174.328979,171.711182 
	C1173.172363,180.673950 1172.034546,189.047165 1171.021240,197.435425 
	C1168.791748,215.891937 1166.452271,234.337677 1164.488647,252.822968 
	C1162.983276,266.992828 1159.980225,281.036224 1161.967163,295.501068 
	C1164.347168,312.828644 1174.595459,326.578949 1190.084595,330.604980 
	C1210.887939,336.012390 1231.422485,334.811646 1251.808594,327.562225 
	C1260.459717,324.485809 1265.590332,320.649048 1265.810181,310.379944 
	C1266.066528,298.409515 1268.417114,286.483948 1269.926636,273.978882 
	C1258.990356,279.296356 1248.133057,281.871948 1236.571289,281.043457 
	C1228.013550,280.430206 1222.796387,275.581116 1223.047485,267.028076 
	C1223.305298,258.248260 1224.405396,249.480682 1225.400879,240.737808 
	C1227.185425,225.063980 1229.146606,209.410049 1231.076660,193.753082 
	C1231.981934,186.409958 1232.986572,179.079071 1233.964111,171.605484 
	C1249.725586,171.605484 1264.875610,171.605484 1280.928955,171.602371 
M1617.536865,128.992630 
	C1606.394653,137.491959 1597.977417,148.401520 1590.050415,159.871033 
	C1591.617554,146.950790 1593.184692,134.030533 1594.776367,120.907730 
	C1574.674072,120.907730 1555.100220,120.907730 1535.228394,120.907730 
	C1526.776245,190.715790 1518.353149,260.284576 1509.924561,329.898926 
	C1530.090088,329.898926 1549.662109,329.898926 1569.450928,329.898926 
	C1569.828735,326.859070 1570.186890,324.084442 1570.516724,321.306488 
	C1572.357666,305.797028 1573.875977,290.240906 1576.116577,274.789490 
	C1578.372925,259.229828 1580.188232,243.461853 1584.268188,228.344193 
	C1590.722534,204.428879 1606.160278,188.027344 1630.633545,181.603867 
	C1638.397827,179.566010 1646.591309,179.163635 1654.790161,177.983765 
	C1657.210693,157.868301 1659.674316,137.394684 1662.140991,116.896042 
	C1645.249878,115.586304 1631.442627,119.327110 1617.536865,128.992630 
M1132.552002,116.640297 
	C1099.100342,114.753479 1078.315308,133.576004 1061.664062,159.732239 
	C1063.180908,146.815018 1064.697754,133.897797 1066.231567,120.835281 
	C1046.152100,120.835281 1026.723755,120.835281 1006.784485,120.835281 
	C998.339294,190.603500 989.911377,260.228943 981.468750,329.976166 
	C1001.726929,329.976166 1021.161804,329.976166 1040.960205,329.976166 
	C1043.341064,310.385468 1045.667114,290.961731 1048.072144,271.547760 
	C1050.047852,255.598022 1051.239502,239.523331 1056.874878,224.220596 
	C1064.943359,202.310791 1079.657349,187.443665 1102.422852,181.503067 
	C1110.017456,179.521301 1118.036499,179.165558 1126.278809,178.007889 
	C1126.972290,172.272797 1127.748047,166.186249 1128.437622,160.089966 
	C1130.059937,145.747070 1131.640869,131.399506 1132.552002,116.640297 
M36.452602,255.090256 
	C52.031071,256.333313 67.618195,257.480286 83.182404,258.881714 
	C87.492516,259.269836 90.807091,259.164917 92.568550,254.194061 
	C93.938721,250.327454 96.356613,246.831757 98.312431,243.173111 
	C106.114670,228.577789 113.918320,213.983200 121.894135,199.065323 
	C108.176598,187.388641 94.716728,175.931290 80.906677,164.175842 
	C63.268475,194.606552 46.032360,224.343552 28.442034,254.691666 
	C31.575121,254.858109 33.561394,254.963623 36.452602,255.090256 
M192.298965,331.201904 
	C196.598557,335.090302 200.898148,338.978668 205.551422,343.186920 
	C212.156143,324.400482 218.574112,306.145264 225.100693,287.581116 
	C212.769028,276.970917 200.456100,266.329437 188.034409,255.816406 
	C187.348343,255.235764 185.472641,255.258728 184.634171,255.779373 
	C169.982513,264.877106 155.406433,274.096527 140.335739,283.590729 
	C157.726959,299.542877 174.739487,315.147675 192.298965,331.201904 
M707.122192,401.641052 
	C705.036621,409.236206 702.951111,416.831329 700.531372,425.643463 
	C698.276245,418.013611 696.401672,411.651672 694.515259,405.293213 
	C691.348145,394.618042 691.344910,394.616669 680.315979,395.075928 
	C679.998657,395.089111 679.688354,395.273254 679.140015,395.455872 
	C676.341675,404.773193 673.502441,414.226501 670.663269,423.679810 
	C670.337280,423.700714 670.011353,423.721619 669.685425,423.742523 
	C667.004211,414.258270 664.323059,404.774017 661.613586,395.189697 
	C657.048401,395.189697 652.766541,395.189697 648.213501,395.189697 
	C648.583496,396.679596 648.830139,397.965820 649.222107,399.206055 
	C653.527222,412.826874 658.211731,426.342072 662.011353,440.101807 
	C663.668274,446.102142 667.624451,444.603577 671.522217,445.093628 
	C675.755737,445.625885 676.850830,443.312897 677.791992,439.967865 
	C680.025696,432.028534 682.509460,424.159546 685.301086,414.906586 
	C687.689453,422.649323 689.627747,428.952728 691.578491,435.252258 
	C694.787781,445.615692 694.791260,445.616638 705.673767,444.931091 
	C705.995056,444.910828 706.307251,444.746796 706.999878,444.534485 
	C712.124939,428.356201 717.315979,411.969666 722.635376,395.178131 
	C717.666260,395.178131 713.537720,395.178131 709.175720,395.178131 
	C708.551270,397.099213 707.941345,398.975525 707.122192,401.641052 
M783.806396,416.685242 
	C782.054321,410.796753 779.896240,404.990936 778.675964,398.994232 
	C777.661133,394.006989 774.323303,395.028259 771.174011,395.005615 
	C767.974121,394.982605 764.872009,394.164581 763.754456,399.126282 
	C761.885803,407.422485 759.021606,415.494446 756.171997,425.011658 
	C755.427307,422.914398 755.133240,422.220703 754.932800,421.500946 
	C752.794189,413.820709 750.774963,406.104462 748.445679,398.482788 
	C748.030212,397.123413 746.452148,395.312347 745.229370,395.159088 
	C741.666870,394.712585 738.012451,395.000610 733.868896,395.000610 
	C738.788940,410.552399 743.820679,425.485840 748.147644,440.620728 
	C749.837158,446.530273 753.895630,444.544647 757.503296,445.049530 
	C761.302063,445.581177 762.598206,443.832642 763.526001,440.364258 
	C765.694031,432.259369 768.378845,424.292694 771.279541,414.891815 
	C773.831848,423.339691 775.779602,430.348511 778.073303,437.242279 
	C781.241150,446.763519 778.360107,444.645050 788.680603,445.058563 
	C791.591797,445.175232 793.108459,444.370728 794.010254,441.410706 
	C798.269409,427.430420 802.762268,413.521332 807.148926,399.579681 
	C807.571655,398.236176 807.836914,396.843140 808.249329,395.173248 
	C803.547607,395.173248 799.421204,395.173248 794.952393,395.173248 
	C792.208679,404.957581 789.479370,414.690796 786.481262,425.382355 
	C785.465332,422.141174 784.731018,419.798492 783.806396,416.685242 
M878.628479,444.535767 
	C883.892700,428.211609 889.156860,411.887421 894.604736,394.993652 
	C890.888794,394.993652 888.214661,395.213837 885.591919,394.940216 
	C881.979797,394.563446 880.372681,395.791870 879.507507,399.508240 
	C877.565125,407.851746 875.011108,416.052856 872.351318,425.583038 
	C869.495728,415.973663 866.731812,407.632141 864.615784,399.129333 
	C863.625061,395.148132 861.414429,394.646271 858.144409,394.988495 
	C854.849731,395.333313 850.999817,393.469910 849.704285,399.111023 
	C847.799561,407.404175 844.933838,415.476624 842.070068,424.997345 
	C841.348877,422.872772 841.076477,422.172272 840.872131,421.452454 
	C838.648560,413.621185 836.524780,405.759369 834.125610,397.982452 
	C833.757446,396.789093 832.209106,395.251251 831.075928,395.133850 
	C827.516724,394.765106 823.895081,394.998169 819.748840,394.998169 
	C824.632080,410.360413 829.446838,425.016937 833.881958,439.787476 
	C835.064941,443.727112 836.708679,445.059998 840.977112,445.214203 
	C846.415344,445.410614 849.104004,443.816376 850.095032,438.391418 
	C850.866150,434.170166 852.527405,430.111267 853.797485,425.981567 
	C854.786560,422.765533 855.782532,419.551666 857.182068,415.020264 
	C860.566284,426.009064 863.480347,435.471405 866.382568,444.895111 
	C870.538940,444.895111 874.189758,444.895111 878.628479,444.535767 
M1250.118164,434.605499 
	C1240.895874,434.439423 1236.696655,431.710266 1236.213013,425.113708 
	C1248.305542,425.113708 1260.373657,425.113708 1272.320435,425.113708 
	C1275.455811,411.351257 1267.915527,398.202026 1255.187866,394.569763 
	C1241.748657,390.734497 1227.655151,397.761017 1223.174072,410.530731 
	C1218.509766,423.822632 1224.401367,438.688019 1236.422729,443.934998 
	C1247.169678,448.625793 1265.380981,446.638214 1270.155396,435.377411 
	C1267.077515,433.575562 1263.958618,431.749725 1261.777588,430.472870 
	C1257.593994,431.995148 1254.249390,433.212067 1250.118164,434.605499 
M1468.979492,407.714020 
	C1460.947144,394.203094 1445.526001,389.621399 1432.522827,396.882538 
	C1420.072388,403.835022 1415.363281,419.481964 1421.868408,432.283905 
	C1428.241211,444.825348 1444.041870,450.066345 1457.008423,443.939545 
	C1470.234131,437.690338 1475.504639,422.437744 1468.979492,407.714020 
M1083.956299,446.016296 
	C1085.120728,446.070770 1086.285278,446.122314 1087.449585,446.180145 
	C1098.762329,446.742096 1107.312012,441.979980 1112.324219,431.987732 
	C1117.193970,422.279785 1116.336426,412.545166 1109.653076,403.789001 
	C1102.740234,394.732147 1093.147583,392.310333 1082.433716,394.276184 
	C1071.153198,396.346008 1062.409058,407.609039 1062.135498,419.607422 
	C1061.850220,432.127258 1069.749512,442.056488 1083.956299,446.016296 
M1382.727661,433.330780 
	C1375.932861,432.236023 1371.901733,428.668976 1370.987305,422.942108 
	C1369.904175,416.159058 1372.522339,410.407532 1377.913452,407.726044 
	C1383.927734,404.734619 1389.550903,406.208557 1395.929321,412.656891 
	C1399.260498,410.734619 1402.678589,408.762207 1406.054077,406.814362 
	C1401.963379,397.076416 1390.324219,391.913666 1378.128662,394.133911 
	C1366.727051,396.209625 1358.041138,406.958344 1357.848022,419.230957 
	C1357.640869,432.395630 1365.454346,443.072662 1377.628784,445.659698 
	C1389.033203,448.083191 1401.518066,443.891785 1406.315308,433.120331 
	C1402.831421,431.145386 1399.297241,429.141937 1395.601929,427.047119 
	C1392.723999,431.850342 1388.633301,433.566589 1382.727661,433.330780 
M972.260132,432.998901 
	C966.049255,432.998901 959.838440,432.998901 952.759521,432.998901 
	C959.211243,424.044769 964.792358,415.784790 970.944641,407.974731 
	C974.072998,404.003479 974.399536,400.014099 973.672852,395.279602 
	C961.308655,395.279602 949.092041,395.279602 936.735718,395.279602 
	C936.735718,399.285583 936.735718,403.000854 936.735718,407.238190 
	C943.300476,407.238190 949.489929,407.238190 956.436584,407.238190 
	C950.106445,416.031097 944.446167,424.225464 938.412048,432.134613 
	C935.414612,436.063538 934.686584,440.050568 935.817566,444.664276 
	C948.918579,444.664276 961.804321,444.664276 975.865784,444.664276 
	C974.898010,440.426758 974.052490,436.724579 972.260132,432.998901 
M1206.464722,444.998993 
	C1207.084351,441.195770 1207.703857,437.392578 1208.343994,433.463104 
	C1205.115234,433.307526 1202.994385,433.612610 1201.186646,432.997467 
	C1199.552856,432.441528 1197.077148,430.943848 1197.012939,429.751556 
	C1196.623535,422.524139 1196.818726,415.265167 1196.818726,407.555756 
	C1200.817383,407.555756 1204.084839,407.555756 1207.566162,407.555756 
	C1207.566162,403.179657 1207.566162,399.293427 1207.566162,395.203888 
	C1203.843384,395.034729 1200.427246,394.879517 1196.565796,394.704071 
	C1196.565796,390.044067 1196.565796,385.788666 1196.565796,380.880096 
	C1192.045532,382.326233 1187.434448,382.719604 1184.486816,385.139252 
	C1182.639160,386.655975 1183.292236,391.219147 1182.784058,394.683105 
	C1180.282837,394.885132 1177.715088,395.092529 1175.053955,395.307495 
	C1175.053955,399.452881 1175.053955,403.231323 1175.053955,407.258331 
	C1177.801758,407.549133 1180.357422,407.819611 1183.326294,408.133789 
	C1183.326294,414.940765 1183.211914,421.410614 1183.350708,427.875031 
	C1183.617432,440.305145 1188.397339,445.121338 1200.647705,445.458984 
	C1202.299683,445.504486 1203.960083,445.245148 1206.464722,444.998993 
M1314.376221,408.592621 
	C1315.819946,408.326202 1317.263550,408.059784 1318.896484,407.758453 
	C1318.896484,403.223328 1318.896484,398.798950 1318.896484,394.207703 
	C1312.629028,393.879578 1308.278320,397.038788 1304.297729,401.803467 
	C1304.157471,399.097992 1304.063721,397.290436 1303.961060,395.309875 
	C1299.701904,395.309875 1295.640137,395.309875 1291.512451,395.309875 
	C1291.512451,411.995667 1291.512451,428.361084 1291.512451,444.721069 
	C1295.827271,444.721069 1299.757324,444.721069 1304.155273,444.721069 
	C1304.155273,436.825500 1304.107422,429.207794 1304.169067,421.591003 
	C1304.228027,414.284088 1306.637207,411.082581 1314.376221,408.592621 
M1155.591064,408.788849 
	C1157.331543,408.419342 1159.072021,408.049866 1160.847900,407.672882 
	C1160.847900,403.079041 1160.847900,398.671753 1160.847900,394.159515 
	C1154.360962,394.069519 1149.806519,397.031830 1146.158081,402.352386 
	C1146.006104,399.580872 1145.890747,397.478638 1145.777954,395.424011 
	C1141.414307,395.424011 1137.391602,395.424011 1133.417725,395.424011 
	C1133.417725,412.075806 1133.417725,428.294312 1133.417725,444.618774 
	C1137.735107,444.618774 1141.755737,444.618774 1146.045532,444.618774 
	C1146.045532,436.600128 1145.957031,428.967377 1146.073730,421.337738 
	C1146.166016,415.311890 1148.540161,410.723419 1155.591064,408.788849 
M913.219971,445.045624 
	C917.935791,440.805115 918.551636,435.393097 914.738037,431.704346 
	C911.338745,428.416321 905.879822,428.509796 902.695862,432.015320 
	C900.073669,434.902252 899.485962,438.277832 901.408569,441.685303 
	C903.916260,446.129883 907.836060,447.114960 913.219971,445.045624 
M1330.484741,444.069885 
	C1333.674072,446.718903 1337.562744,447.440704 1340.489746,444.754211 
	C1342.610596,442.807678 1344.152954,439.241791 1344.260010,436.335693 
	C1344.399902,432.536774 1341.306152,429.587158 1337.517212,429.643127 
	C1334.744751,429.684052 1331.243530,431.047180 1329.421875,433.052002 
	C1326.625122,436.129761 1327.108765,440.131683 1330.484741,444.069885 
z"/>
<path fill="#7D7F84" opacity="1.000000" stroke="none" 
	d="
M993.463196,465.000000 
	C993.113525,446.528595 993.232544,428.057251 993.336548,409.585785 
	C993.362671,404.950470 993.340515,400.314880 993.340515,395.338013 
	C997.663208,395.338013 1001.569092,395.338013 1005.797546,395.338013 
	C1006.000244,396.596527 1006.222168,397.974976 1006.386597,398.996063 
	C1026.534546,388.532410 1040.625732,393.300598 1046.353271,415.652557 
	C1049.129028,426.484741 1044.738770,436.357544 1035.177490,442.514465 
	C1025.690063,448.623718 1015.932861,447.915802 1006.127686,439.667206 
	C1006.127686,448.378723 1006.127686,456.224274 1006.063843,464.534912 
	C1001.975464,465.000000 997.950928,465.000000 993.463196,465.000000 
M1025.236938,433.118011 
	C1033.299805,428.938965 1036.193604,420.676849 1032.236572,413.134033 
	C1028.712036,406.415558 1020.099670,403.928955 1013.318359,407.671936 
	C1007.322021,410.981689 1004.768921,418.416809 1007.216309,425.441895 
	C1009.483093,431.948700 1016.192810,435.032928 1025.236938,433.118011 
z"/>
<path fill="#FEFEFE" opacity="1.000000" stroke="none" 
	d="
M712.782532,158.304626 
	C724.296143,180.083664 725.863953,202.981201 722.987610,226.525955 
	C719.147156,257.962952 706.870483,285.495636 683.297363,306.942230 
	C656.495361,331.326477 624.950867,339.799103 589.537842,330.836578 
	C574.271667,326.972961 563.477417,316.135406 552.833862,303.711334 
	C549.171509,333.826050 545.600769,363.187500 542.003906,392.763367 
	C522.251770,392.763367 502.651215,392.763367 482.510559,392.763367 
	C493.475555,302.157227 504.421722,211.706604 515.404175,120.956360 
	C535.162170,120.956360 554.733765,120.956360 574.862244,120.956360 
	C573.801697,130.101654 572.740662,139.251434 571.484619,150.082565 
	C591.853516,127.377525 615.420105,114.857010 645.277405,116.767838 
	C674.997681,118.669891 697.867981,131.655014 712.782532,158.304626 
M653.156799,255.617462 
	C661.517944,242.414551 664.346069,227.893112 664.018250,212.434418 
	C663.274353,177.356522 629.405823,156.431137 597.709717,171.633224 
	C567.956909,185.903214 552.551514,226.387817 565.146912,257.206940 
	C573.277039,277.100311 592.692810,287.292450 613.944092,283.292816 
	C631.055603,280.072296 643.367371,270.301819 653.156799,255.617462 
z"/>
<path fill="#FEFEFE" opacity="1.000000" stroke="none" 
	d="
M915.181213,124.765678 
	C945.107178,137.632385 963.850220,159.721680 970.422913,191.107773 
	C976.307556,219.208237 971.094666,246.084106 956.501465,270.707886 
	C937.026245,303.569336 908.295227,324.415100 870.901306,332.234772 
	C839.845825,338.729034 809.937378,335.378174 783.064941,316.999908 
	C761.174133,302.028595 748.638367,280.930450 744.958069,254.797714 
	C737.410339,201.202560 768.922241,152.913239 813.022583,130.824524 
	C846.001404,114.306290 879.983398,111.762161 915.181213,124.765678 
M896.769165,263.262726 
	C908.742798,249.399231 913.901917,233.127975 913.244873,215.029037 
	C912.670410,199.206512 906.333618,186.053223 893.274658,176.733688 
	C875.406067,163.981705 848.039612,165.023834 829.447449,179.253510 
	C810.317627,193.894638 802.128113,213.843704 803.133789,237.514969 
	C803.838379,254.100540 811.137756,267.568024 825.387268,276.512085 
	C847.110413,290.147125 877.531677,284.544342 896.769165,263.262726 
z"/>
<path fill="#FEFEFE" opacity="1.000000" stroke="none" 
	d="
M1460.975342,128.993774 
	C1485.821533,144.720596 1497.116089,168.063034 1499.952637,196.045593 
	C1501.921021,215.462448 1500.350830,235.026627 1496.735596,245.996948 
	C1448.324951,245.996948 1399.761475,245.996948 1351.158813,245.996948 
	C1353.551025,271.977386 1369.700317,286.452087 1395.116211,287.136719 
	C1414.412964,287.656586 1430.806152,281.064636 1445.747070,269.634735 
	C1447.330322,268.423553 1448.917603,267.217773 1450.686646,265.869507 
	C1460.467773,276.151581 1470.188721,286.370300 1480.280151,296.978607 
	C1473.636841,304.386505 1465.011108,311.605652 1455.277344,317.332275 
	C1419.013550,338.667053 1380.983643,341.798035 1342.701904,324.563324 
	C1312.502197,310.967224 1296.792480,285.477692 1294.150391,252.786087 
	C1290.481079,207.383835 1306.524658,169.614822 1341.910278,140.906937 
	C1366.895386,120.636703 1396.021606,113.584335 1427.942627,117.776489 
	C1439.626221,119.310898 1450.602051,122.617798 1460.975342,128.993774 
M1406.372070,164.222748 
	C1376.730591,163.903519 1359.955811,188.632172 1355.426636,208.761169 
	C1384.963867,208.761169 1414.507935,208.761169 1444.039551,208.761169 
	C1444.958252,183.427597 1432.338623,168.252670 1406.372070,164.222748 
z"/>
<path fill="#FEFEFE" opacity="1.000000" stroke="none" 
	d="
M1280.477295,171.603928 
	C1264.875610,171.605484 1249.725586,171.605484 1233.964111,171.605484 
	C1232.986572,179.079071 1231.981934,186.409958 1231.076660,193.753082 
	C1229.146606,209.410049 1227.185425,225.063980 1225.400879,240.737808 
	C1224.405396,249.480682 1223.305298,258.248260 1223.047485,267.028076 
	C1222.796387,275.581116 1228.013550,280.430206 1236.571289,281.043457 
	C1248.133057,281.871948 1258.990356,279.296356 1269.926636,273.978882 
	C1268.417114,286.483948 1266.066528,298.409515 1265.810181,310.379944 
	C1265.590332,320.649048 1260.459717,324.485809 1251.808594,327.562225 
	C1231.422485,334.811646 1210.887939,336.012390 1190.084595,330.604980 
	C1174.595459,326.578949 1164.347168,312.828644 1161.967163,295.501068 
	C1159.980225,281.036224 1162.983276,266.992828 1164.488647,252.822968 
	C1166.452271,234.337677 1168.791748,215.891937 1171.021240,197.435425 
	C1172.034546,189.047165 1173.172363,180.673950 1174.328979,171.711182 
	C1165.847046,171.711182 1157.774414,171.711182 1149.285767,171.711182 
	C1151.346802,154.542313 1153.338013,137.955612 1155.416138,120.644379 
	C1163.725708,120.644379 1172.104004,120.644379 1180.429932,120.644379 
	C1182.675659,102.357903 1184.832886,84.792160 1186.991699,67.213776 
	C1206.982300,67.213776 1226.444702,67.213776 1246.415405,67.213776 
	C1244.301514,84.994026 1242.213867,102.554047 1240.076660,120.530899 
	C1256.393677,120.530899 1272.479858,120.530899 1289.196289,120.530899 
	C1288.346802,128.173981 1287.573120,135.371048 1286.740479,142.561249 
	C1285.823730,150.478378 1284.996094,158.410980 1283.800415,166.286850 
	C1283.515869,168.160812 1281.921021,169.835831 1280.477295,171.603928 
z"/>
<path fill="#FEFEFE" opacity="1.000000" stroke="none" 
	d="
M1617.821533,128.777222 
	C1631.442627,119.327110 1645.249878,115.586304 1662.140991,116.896042 
	C1659.674316,137.394684 1657.210693,157.868301 1654.790161,177.983765 
	C1646.591309,179.163635 1638.397827,179.566010 1630.633545,181.603867 
	C1606.160278,188.027344 1590.722534,204.428879 1584.268188,228.344193 
	C1580.188232,243.461853 1578.372925,259.229828 1576.116577,274.789490 
	C1573.875977,290.240906 1572.357666,305.797028 1570.516724,321.306488 
	C1570.186890,324.084442 1569.828735,326.859070 1569.450928,329.898926 
	C1549.662109,329.898926 1530.090088,329.898926 1509.924561,329.898926 
	C1518.353149,260.284576 1526.776245,190.715790 1535.228394,120.907730 
	C1555.100220,120.907730 1574.674072,120.907730 1594.776367,120.907730 
	C1593.184692,134.030533 1591.617554,146.950790 1590.050415,159.871033 
	C1597.977417,148.401520 1606.394653,137.491959 1617.821533,128.777222 
z"/>
<path fill="#FEFEFE" opacity="1.000000" stroke="none" 
	d="
M1132.895264,116.847069 
	C1131.640869,131.399506 1130.059937,145.747070 1128.437622,160.089966 
	C1127.748047,166.186249 1126.972290,172.272797 1126.278809,178.007889 
	C1118.036499,179.165558 1110.017456,179.521301 1102.422852,181.503067 
	C1079.657349,187.443665 1064.943359,202.310791 1056.874878,224.220596 
	C1051.239502,239.523331 1050.047852,255.598022 1048.072144,271.547760 
	C1045.667114,290.961731 1043.341064,310.385468 1040.960205,329.976166 
	C1021.161804,329.976166 1001.726929,329.976166 981.468750,329.976166 
	C989.911377,260.228943 998.339294,190.603500 1006.784485,120.835281 
	C1026.723755,120.835281 1046.152100,120.835281 1066.231567,120.835281 
	C1064.697754,133.897797 1063.180908,146.815018 1061.664062,159.732239 
	C1078.315308,133.576004 1099.100342,114.753479 1132.895264,116.847069 
z"/>
<path fill="#F2C045" opacity="1.000000" stroke="none" 
	d="
M284.007812,193.155975 
	C301.909241,181.782471 319.799988,170.392105 337.718536,159.045624 
	C343.170074,155.593597 348.698242,152.262573 354.682495,149.125259 
	C365.869568,164.742264 376.631775,180.064728 387.209412,195.513580 
	C389.522461,198.891800 391.177094,202.720856 393.134949,206.342285 
	C375.963867,223.940308 358.794159,241.539612 341.620209,259.134766 
	C339.415314,261.393707 337.188232,263.630981 334.265808,265.973022 
	C331.679962,264.988708 329.143799,264.368591 328.019043,262.760986 
	C313.859619,242.522842 299.963409,222.100647 285.827942,201.845535 
	C283.856781,199.021027 282.971497,196.400620 284.007812,193.155975 
z"/>
<path fill="#EBAA3D" opacity="1.000000" stroke="none" 
	d="
M490.140015,107.320107 
	C473.382050,124.499435 456.624054,141.678757 439.262512,158.807175 
	C437.424500,156.985580 436.165039,155.231735 434.959564,153.441528 
	C426.253082,140.511871 417.557526,127.574829 408.858459,114.640137 
	C411.048309,113.060135 413.238129,111.480133 415.868652,109.582184 
	C414.739105,109.346146 414.164001,109.225967 413.252899,108.664490 
	C412.297943,106.866638 411.861572,105.385040 411.031616,104.172966 
	C403.180847,92.707588 395.158722,81.358086 387.419861,69.818329 
	C384.623047,65.647911 382.459045,61.053127 380.006287,56.651978 
	C389.108887,56.536671 398.211365,56.341393 407.314148,56.323360 
	C424.223022,56.289860 441.132141,56.359772 458.516113,56.832565 
	C465.861603,67.552704 472.979401,77.672897 479.508850,88.159439 
	C483.358795,94.342590 489.542206,99.315697 490.140015,107.320107 
z"/>
<path fill="#E69F39" opacity="1.000000" stroke="none" 
	d="
M36.000134,255.079697 
	C33.561394,254.963623 31.575121,254.858109 28.442034,254.691666 
	C46.032360,224.343552 63.268475,194.606552 80.906677,164.175842 
	C94.716728,175.931290 108.176598,187.388641 121.894135,199.065323 
	C113.918320,213.983200 106.114670,228.577789 98.312431,243.173111 
	C96.356613,246.831757 93.938721,250.327454 92.568550,254.194061 
	C90.807091,259.164917 87.492516,259.269836 83.182404,258.881714 
	C67.618195,257.480286 52.031071,256.333313 36.000134,255.079697 
z"/>
<path fill="#EDB741" opacity="1.000000" stroke="none" 
	d="
M283.669708,193.204437 
	C282.971497,196.400620 283.856781,199.021027 285.827942,201.845535 
	C299.963409,222.100647 313.859619,242.522842 328.019043,262.760986 
	C329.143799,264.368591 331.679962,264.988708 333.969177,266.105133 
	C331.288208,269.546936 328.198242,272.951355 324.134827,277.428314 
	C331.156830,277.428314 337.134277,277.428314 343.560303,277.917480 
	C344.369904,279.475891 344.510223,280.696808 345.125214,281.591400 
	C353.389557,293.613159 361.808258,305.529694 369.983429,317.611237 
	C372.629639,321.521942 374.679932,325.835876 377.002777,329.965393 
	C363.642883,330.026245 350.282990,330.087097 336.456665,329.689880 
	C335.845001,328.590118 335.875610,327.827454 335.529327,327.323975 
	C318.693665,302.845612 301.850220,278.372437 284.892731,253.978577 
	C283.986237,252.674530 282.088867,252.059311 280.652771,251.123428 
	C278.583496,234.536819 276.472687,217.955048 274.537262,201.352844 
	C274.406464,200.230896 275.294312,198.572433 276.234497,197.827301 
	C278.429810,196.087494 280.945618,194.752106 283.669708,193.204437 
z"/>
<path fill="#F3C145" opacity="1.000000" stroke="none" 
	d="
M377.463806,330.055603 
	C374.679932,325.835876 372.629639,321.521942 369.983429,317.611237 
	C361.808258,305.529694 353.389557,293.613159 345.125214,281.591400 
	C344.510223,280.696808 344.369904,279.475891 344.003418,278.070129 
	C354.762512,277.611755 365.526855,277.420074 376.291718,277.385590 
	C390.221344,277.340973 404.151398,277.421844 418.536316,277.934540 
	C419.643219,280.091034 420.005951,281.959320 420.991974,283.401520 
	C429.969452,296.532593 439.120300,309.545563 448.044159,322.712494 
	C449.476196,324.825378 450.036102,327.529327 450.999207,329.960022 
	C426.641083,330.021942 402.282928,330.083862 377.463806,330.055603 
z"/>
<path fill="#EFB741" opacity="1.000000" stroke="none" 
	d="
M408.519226,114.748840 
	C417.557526,127.574829 426.253082,140.511871 434.959564,153.441528 
	C436.165039,155.231735 437.424500,156.985580 438.961365,158.938202 
	C426.403107,172.365738 413.541290,185.610245 400.682709,198.857864 
	C398.366150,201.244537 396.062653,203.643875 393.444031,206.189819 
	C391.177094,202.720856 389.522461,198.891800 387.209412,195.513580 
	C376.631775,180.064728 365.869568,164.742264 355.029846,149.047577 
	C368.139069,140.232361 381.382050,131.728073 394.650818,123.264320 
	C399.126831,120.409218 403.668365,117.656860 408.519226,114.748840 
z"/>
<path fill="#E69F39" opacity="1.000000" stroke="none" 
	d="
M192.025482,330.977173 
	C174.739487,315.147675 157.726959,299.542877 140.335739,283.590729 
	C155.406433,274.096527 169.982513,264.877106 184.634171,255.779373 
	C185.472641,255.258728 187.348343,255.235764 188.034409,255.816406 
	C200.456100,266.329437 212.769028,276.970917 225.100693,287.581116 
	C218.574112,306.145264 212.156143,324.400482 205.551422,343.186920 
	C200.898148,338.978668 196.598557,335.090302 192.025482,330.977173 
z"/>
<path fill="#EEB240" opacity="1.000000" stroke="none" 
	d="
M379.554688,56.518051 
	C382.459045,61.053127 384.623047,65.647911 387.419861,69.818329 
	C395.158722,81.358086 403.180847,92.707588 411.031616,104.172966 
	C411.861572,105.385040 412.297943,106.866638 412.956543,108.574715 
	C396.304016,108.987923 379.611847,109.049606 362.453674,108.654572 
	C361.749451,107.420555 361.685181,106.524429 361.247375,105.883430 
	C351.729034,91.946869 342.122925,78.069992 332.663788,64.093575 
	C331.129211,61.826134 330.211029,59.141525 329.007935,56.649742 
	C345.706329,56.561203 362.404694,56.472656 379.554688,56.518051 
z"/>
<path fill="#EEB340" opacity="1.000000" stroke="none" 
	d="
M121.998268,56.936752 
	C146.893585,56.936752 171.788910,56.936752 197.484009,56.936752 
	C193.515945,64.477356 189.787048,71.613182 186.012009,78.724533 
	C181.433258,87.349922 176.600327,95.849518 172.317520,104.618515 
	C170.532776,108.272774 168.450623,109.922966 164.378372,109.421242 
	C161.593704,109.078148 158.736328,109.325233 155.421616,108.844513 
	C147.374161,97.168007 139.686966,86.039780 132.313217,74.707581 
	C128.582565,68.974197 125.418503,62.872128 121.998268,56.936752 
z"/>
<path fill="#F0BA42" opacity="1.000000" stroke="none" 
	d="
M328.556396,56.515274 
	C330.211029,59.141525 331.129211,61.826134 332.663788,64.093575 
	C342.122925,78.069992 351.729034,91.946869 361.247375,105.883430 
	C361.685181,106.524429 361.749451,107.420555 361.992676,108.562546 
	C347.638489,108.987823 333.279266,109.048431 318.419861,108.669083 
	C317.671600,107.617073 317.525208,106.935349 317.160522,106.403221 
	C309.312927,94.951614 301.370697,83.564163 293.606293,72.056625 
	C290.225037,67.045280 287.199249,61.794098 284.012024,56.651840 
	C298.709625,56.561497 313.407227,56.471149 328.556396,56.515274 
z"/>
<path fill="#EBAA3D" opacity="1.000000" stroke="none" 
	d="
M121.540695,56.825417 
	C125.418503,62.872128 128.582565,68.974197 132.313217,74.707581 
	C139.686966,86.039780 147.374161,97.168007 154.964874,108.738098 
	C138.882553,109.178337 122.766960,109.304985 106.651970,109.251106 
	C105.501076,109.247269 103.681915,108.172813 103.306427,107.171364 
	C97.105469,90.633156 91.086319,74.026772 84.762871,56.714085 
	C97.281929,56.714085 109.182518,56.714085 121.540695,56.825417 
z"/>
<path fill="#7F8186" opacity="1.000000" stroke="none" 
	d="
M707.226807,401.246460 
	C707.941345,398.975525 708.551270,397.099213 709.175720,395.178131 
	C713.537720,395.178131 717.666260,395.178131 722.635376,395.178131 
	C717.315979,411.969666 712.124939,428.356201 706.999878,444.534485 
	C706.307251,444.746796 705.995056,444.910828 705.673767,444.931091 
	C694.791260,445.616638 694.787781,445.615692 691.578491,435.252258 
	C689.627747,428.952728 687.689453,422.649323 685.301086,414.906586 
	C682.509460,424.159546 680.025696,432.028534 677.791992,439.967865 
	C676.850830,443.312897 675.755737,445.625885 671.522217,445.093628 
	C667.624451,444.603577 663.668274,446.102142 662.011353,440.101807 
	C658.211731,426.342072 653.527222,412.826874 649.222107,399.206055 
	C648.830139,397.965820 648.583496,396.679596 648.213501,395.189697 
	C652.766541,395.189697 657.048401,395.189697 661.613586,395.189697 
	C664.323059,404.774017 667.004211,414.258270 669.685425,423.742523 
	C670.011353,423.721619 670.337280,423.700714 670.663269,423.679810 
	C673.502441,414.226501 676.341675,404.773193 679.140015,395.455872 
	C679.688354,395.273254 679.998657,395.089111 680.315979,395.075928 
	C691.344910,394.616669 691.348145,394.618042 694.515259,405.293213 
	C696.401672,411.651672 698.276245,418.013611 700.531372,425.643463 
	C702.951111,416.831329 705.036621,409.236206 707.226807,401.246460 
z"/>
<path fill="#7F8186" opacity="1.000000" stroke="none" 
	d="
M783.901611,417.070496 
	C784.731018,419.798492 785.465332,422.141174 786.481262,425.382355 
	C789.479370,414.690796 792.208679,404.957581 794.952393,395.173248 
	C799.421204,395.173248 803.547607,395.173248 808.249329,395.173248 
	C807.836914,396.843140 807.571655,398.236176 807.148926,399.579681 
	C802.762268,413.521332 798.269409,427.430420 794.010254,441.410706 
	C793.108459,444.370728 791.591797,445.175232 788.680603,445.058563 
	C778.360107,444.645050 781.241150,446.763519 778.073303,437.242279 
	C775.779602,430.348511 773.831848,423.339691 771.279541,414.891815 
	C768.378845,424.292694 765.694031,432.259369 763.526001,440.364258 
	C762.598206,443.832642 761.302063,445.581177 757.503296,445.049530 
	C753.895630,444.544647 749.837158,446.530273 748.147644,440.620728 
	C743.820679,425.485840 738.788940,410.552399 733.868896,395.000610 
	C738.012451,395.000610 741.666870,394.712585 745.229370,395.159088 
	C746.452148,395.312347 748.030212,397.123413 748.445679,398.482788 
	C750.774963,406.104462 752.794189,413.820709 754.932800,421.500946 
	C755.133240,422.220703 755.427307,422.914398 756.171997,425.011658 
	C759.021606,415.494446 761.885803,407.422485 763.754456,399.126282 
	C764.872009,394.164581 767.974121,394.982605 771.174011,395.005615 
	C774.323303,395.028259 777.661133,394.006989 778.675964,398.994232 
	C779.896240,404.990936 782.054321,410.796753 783.901611,417.070496 
z"/>
<path fill="#7F8186" opacity="1.000000" stroke="none" 
	d="
M878.234497,444.715454 
	C874.189758,444.895111 870.538940,444.895111 866.382568,444.895111 
	C863.480347,435.471405 860.566284,426.009064 857.182068,415.020264 
	C855.782532,419.551666 854.786560,422.765533 853.797485,425.981567 
	C852.527405,430.111267 850.866150,434.170166 850.095032,438.391418 
	C849.104004,443.816376 846.415344,445.410614 840.977112,445.214203 
	C836.708679,445.059998 835.064941,443.727112 833.881958,439.787476 
	C829.446838,425.016937 824.632080,410.360413 819.748840,394.998169 
	C823.895081,394.998169 827.516724,394.765106 831.075928,395.133850 
	C832.209106,395.251251 833.757446,396.789093 834.125610,397.982452 
	C836.524780,405.759369 838.648560,413.621185 840.872131,421.452454 
	C841.076477,422.172272 841.348877,422.872772 842.070068,424.997345 
	C844.933838,415.476624 847.799561,407.404175 849.704285,399.111023 
	C850.999817,393.469910 854.849731,395.333313 858.144409,394.988495 
	C861.414429,394.646271 863.625061,395.148132 864.615784,399.129333 
	C866.731812,407.632141 869.495728,415.973663 872.351318,425.583038 
	C875.011108,416.052856 877.565125,407.851746 879.507507,399.508240 
	C880.372681,395.791870 881.979797,394.563446 885.591919,394.940216 
	C888.214661,395.213837 890.888794,394.993652 894.604736,394.993652 
	C889.156860,411.887421 883.892700,428.211609 878.234497,444.715454 
z"/>
<path fill="#F1BF44" opacity="1.000000" stroke="none" 
	d="
M283.560669,56.515793 
	C287.199249,61.794098 290.225037,67.045280 293.606293,72.056625 
	C301.370697,83.564163 309.312927,94.951614 317.160522,106.403221 
	C317.525208,106.935349 317.671600,107.617073 317.958740,108.577866 
	C300.052917,108.926605 282.108063,108.926605 263.687805,108.926605 
	C261.696625,91.492020 259.723907,74.218735 257.686554,56.379749 
	C266.549133,56.379749 274.829193,56.379749 283.560669,56.515793 
z"/>
<path fill="#EDB240" opacity="1.000000" stroke="none" 
	d="
M280.642212,251.572021 
	C282.088867,252.059311 283.986237,252.674530 284.892731,253.978577 
	C301.850220,278.372437 318.693665,302.845612 335.529327,327.323975 
	C335.875610,327.827454 335.845001,328.590118 335.995911,329.597290 
	C320.860107,329.962738 305.718567,329.962738 289.723572,329.962738 
	C286.697083,304.017609 283.664398,278.019104 280.642212,251.572021 
z"/>
<path fill="#7F8186" opacity="1.000000" stroke="none" 
	d="
M1250.511475,434.517273 
	C1254.249390,433.212067 1257.593994,431.995148 1261.777588,430.472870 
	C1263.958618,431.749725 1267.077515,433.575562 1270.155396,435.377411 
	C1265.380981,446.638214 1247.169678,448.625793 1236.422729,443.934998 
	C1224.401367,438.688019 1218.509766,423.822632 1223.174072,410.530731 
	C1227.655151,397.761017 1241.748657,390.734497 1255.187866,394.569763 
	C1267.915527,398.202026 1275.455811,411.351257 1272.320435,425.113708 
	C1260.373657,425.113708 1248.305542,425.113708 1236.213013,425.113708 
	C1236.696655,431.710266 1240.895874,434.439423 1250.511475,434.517273 
M1245.541992,415.144531 
	C1250.276123,415.144531 1255.010376,415.144531 1259.916382,415.144531 
	C1258.059937,408.200012 1253.783569,404.958801 1247.487793,405.149445 
	C1241.124634,405.342163 1236.818481,408.850677 1235.555054,415.144653 
	C1238.600952,415.144653 1241.583984,415.144653 1245.541992,415.144531 
z"/>
<path fill="#7F8085" opacity="1.000000" stroke="none" 
	d="
M1469.134033,408.057678 
	C1475.504639,422.437744 1470.234131,437.690338 1457.008423,443.939545 
	C1444.041870,450.066345 1428.241211,444.825348 1421.868408,432.283905 
	C1415.363281,419.481964 1420.072388,403.835022 1432.522827,396.882538 
	C1445.526001,389.621399 1460.947144,394.203094 1469.134033,408.057678 
M1450.124512,432.962219 
	C1457.960571,429.030487 1461.028687,421.752625 1457.917480,414.475952 
	C1454.989990,407.628540 1447.591064,404.511536 1440.484375,407.131653 
	C1434.083618,409.491516 1430.479126,417.124878 1432.524902,423.987885 
	C1434.755127,431.469666 1441.193359,434.966614 1450.124512,432.962219 
z"/>
<path fill="#7F8085" opacity="1.000000" stroke="none" 
	d="
M1083.517822,445.974854 
	C1069.749512,442.056488 1061.850220,432.127258 1062.135498,419.607422 
	C1062.409058,407.609039 1071.153198,396.346008 1082.433716,394.276184 
	C1093.147583,392.310333 1102.740234,394.732147 1109.653076,403.789001 
	C1116.336426,412.545166 1117.193970,422.279785 1112.324219,431.987732 
	C1107.312012,441.979980 1098.762329,446.742096 1087.449585,446.180145 
	C1086.285278,446.122314 1085.120728,446.070770 1083.517822,445.974854 
M1078.362915,410.962219 
	C1074.330811,416.316467 1074.075684,421.986389 1077.373413,427.682251 
	C1079.964111,432.156860 1085.650391,434.537140 1090.642700,433.675598 
	C1096.558716,432.654602 1100.862183,428.658813 1101.921509,423.202850 
	C1103.147339,416.888763 1100.774170,411.119141 1095.723145,408.134552 
	C1090.196167,404.868744 1084.450928,405.641235 1078.362915,410.962219 
z"/>
<path fill="#F1BD43" opacity="1.000000" stroke="none" 
	d="
M451.458832,330.057220 
	C450.036102,327.529327 449.476196,324.825378 448.044159,322.712494 
	C439.120300,309.545563 429.969452,296.532593 420.991974,283.401520 
	C420.005951,281.959320 419.643219,280.091034 418.979706,278.080444 
	C429.008575,277.643646 439.049133,277.546722 449.623657,277.891632 
	C455.786499,286.725128 461.366119,295.150726 467.102142,303.468445 
	C467.877930,304.593384 469.439087,305.176697 470.636627,306.010773 
	C469.738373,313.891632 468.840149,321.772522 467.884796,330.154419 
	C462.469757,330.154419 457.194122,330.154419 451.458832,330.057220 
z"/>
<path fill="#7E8085" opacity="1.000000" stroke="none" 
	d="
M1383.163208,433.338867 
	C1388.633301,433.566589 1392.723999,431.850342 1395.601929,427.047119 
	C1399.297241,429.141937 1402.831421,431.145386 1406.315308,433.120331 
	C1401.518066,443.891785 1389.033203,448.083191 1377.628784,445.659698 
	C1365.454346,443.072662 1357.640869,432.395630 1357.848022,419.230957 
	C1358.041138,406.958344 1366.727051,396.209625 1378.128662,394.133911 
	C1390.324219,391.913666 1401.963379,397.076416 1406.054077,406.814362 
	C1402.678589,408.762207 1399.260498,410.734619 1395.929321,412.656891 
	C1389.550903,406.208557 1383.927734,404.734619 1377.913452,407.726044 
	C1372.522339,410.407532 1369.904175,416.159058 1370.987305,422.942108 
	C1371.901733,428.668976 1375.932861,432.236023 1383.163208,433.338867 
z"/>
<path fill="#7F8186" opacity="1.000000" stroke="none" 
	d="
M972.733521,433.010620 
	C974.052490,436.724579 974.898010,440.426758 975.865784,444.664276 
	C961.804321,444.664276 948.918579,444.664276 935.817566,444.664276 
	C934.686584,440.050568 935.414612,436.063538 938.412048,432.134613 
	C944.446167,424.225464 950.106445,416.031097 956.436584,407.238190 
	C949.489929,407.238190 943.300476,407.238190 936.735718,407.238190 
	C936.735718,403.000854 936.735718,399.285583 936.735718,395.279602 
	C949.092041,395.279602 961.308655,395.279602 973.672852,395.279602 
	C974.399536,400.014099 974.072998,404.003479 970.944641,407.974731 
	C964.792358,415.784790 959.211243,424.044769 952.759521,432.998901 
	C959.838440,432.998901 966.049255,432.998901 972.733521,433.010620 
z"/>
<path fill="#7B7D82" opacity="1.000000" stroke="none" 
	d="
M1206.040649,445.062988 
	C1203.960083,445.245148 1202.299683,445.504486 1200.647705,445.458984 
	C1188.397339,445.121338 1183.617432,440.305145 1183.350708,427.875031 
	C1183.211914,421.410614 1183.326294,414.940765 1183.326294,408.133789 
	C1180.357422,407.819611 1177.801758,407.549133 1175.053955,407.258331 
	C1175.053955,403.231323 1175.053955,399.452881 1175.053955,395.307495 
	C1177.715088,395.092529 1180.282837,394.885132 1182.784058,394.683105 
	C1183.292236,391.219147 1182.639160,386.655975 1184.486816,385.139252 
	C1187.434448,382.719604 1192.045532,382.326233 1196.565796,380.880096 
	C1196.565796,385.788666 1196.565796,390.044067 1196.565796,394.704071 
	C1200.427246,394.879517 1203.843384,395.034729 1207.566162,395.203888 
	C1207.566162,399.293427 1207.566162,403.179657 1207.566162,407.555756 
	C1204.084839,407.555756 1200.817383,407.555756 1196.818726,407.555756 
	C1196.818726,415.265167 1196.623535,422.524139 1197.012939,429.751556 
	C1197.077148,430.943848 1199.552856,432.441528 1201.186646,432.997467 
	C1202.994385,433.612610 1205.115234,433.307526 1208.343994,433.463104 
	C1207.703857,437.392578 1207.084351,441.195770 1206.040649,445.062988 
z"/>
<path fill="#DC9A37" opacity="1.000000" stroke="none" 
	d="
M490.454163,107.169098 
	C489.542206,99.315697 483.358795,94.342590 479.508850,88.159439 
	C472.979401,77.672897 465.861603,67.552704 458.964874,56.952564 
	C472.710938,56.626617 486.483246,56.626617 500.906921,56.626617 
	C500.186920,63.197659 499.512909,69.703865 498.752106,76.199905 
	C497.863220,83.789467 497.273987,91.445267 495.778992,98.917107 
	C495.195221,101.834808 492.501160,104.330299 490.454163,107.169098 
z"/>
<path fill="#7F8085" opacity="1.000000" stroke="none" 
	d="
M1313.981934,408.691010 
	C1306.637207,411.082581 1304.228027,414.284088 1304.169067,421.591003 
	C1304.107422,429.207794 1304.155273,436.825500 1304.155273,444.721069 
	C1299.757324,444.721069 1295.827271,444.721069 1291.512451,444.721069 
	C1291.512451,428.361084 1291.512451,411.995667 1291.512451,395.309875 
	C1295.640137,395.309875 1299.701904,395.309875 1303.961060,395.309875 
	C1304.063721,397.290436 1304.157471,399.097992 1304.297729,401.803467 
	C1308.278320,397.038788 1312.629028,393.879578 1318.896484,394.207703 
	C1318.896484,398.798950 1318.896484,403.223328 1318.896484,407.758453 
	C1317.263550,408.059784 1315.819946,408.326202 1313.981934,408.691010 
z"/>
<path fill="#7F8085" opacity="1.000000" stroke="none" 
	d="
M1155.192139,408.870514 
	C1148.540161,410.723419 1146.166016,415.311890 1146.073730,421.337738 
	C1145.957031,428.967377 1146.045532,436.600128 1146.045532,444.618774 
	C1141.755737,444.618774 1137.735107,444.618774 1133.417725,444.618774 
	C1133.417725,428.294312 1133.417725,412.075806 1133.417725,395.424011 
	C1137.391602,395.424011 1141.414307,395.424011 1145.777954,395.424011 
	C1145.890747,397.478638 1146.006104,399.580872 1146.158081,402.352386 
	C1149.806519,397.031830 1154.360962,394.069519 1160.847900,394.159515 
	C1160.847900,398.671753 1160.847900,403.079041 1160.847900,407.672882 
	C1159.072021,408.049866 1157.331543,408.419342 1155.192139,408.870514 
z"/>
<path fill="#EDB741" opacity="1.000000" stroke="none" 
	d="
M470.753906,305.592743 
	C469.439087,305.176697 467.877930,304.593384 467.102142,303.468445 
	C461.366119,295.150726 455.786499,286.725128 450.068451,278.035278 
	C457.855164,277.737091 465.731110,277.737091 474.183960,277.737091 
	C473.068054,286.979614 471.969635,296.077179 470.753906,305.592743 
z"/>
<path fill="#7D7F84" opacity="1.000000" stroke="none" 
	d="
M912.877686,445.262573 
	C907.836060,447.114960 903.916260,446.129883 901.408569,441.685303 
	C899.485962,438.277832 900.073669,434.902252 902.695862,432.015320 
	C905.879822,428.509796 911.338745,428.416321 914.738037,431.704346 
	C918.551636,435.393097 917.935791,440.805115 912.877686,445.262573 
z"/>
<path fill="#7D7F84" opacity="1.000000" stroke="none" 
	d="
M1330.200195,443.788391 
	C1327.108765,440.131683 1326.625122,436.129761 1329.421875,433.052002 
	C1331.243530,431.047180 1334.744751,429.684052 1337.517212,429.643127 
	C1341.306152,429.587158 1344.399902,432.536774 1344.260010,436.335693 
	C1344.152954,439.241791 1342.610596,442.807678 1340.489746,444.754211 
	C1337.562744,447.440704 1333.674072,446.718903 1330.200195,443.788391 
z"/>
<path fill="#050607" opacity="1.000000" stroke="none" 
	d="
M1024.853271,433.245361 
	C1016.192810,435.032928 1009.483093,431.948700 1007.216309,425.441895 
	C1004.768921,418.416809 1007.322021,410.981689 1013.318359,407.671936 
	C1020.099670,403.928955 1028.712036,406.415558 1032.236572,413.134033 
	C1036.193604,420.676849 1033.299805,428.938965 1024.853271,433.245361 
z"/>
<path fill="#040506" opacity="1.000000" stroke="none" 
	d="
M653.000061,255.944672 
	C643.367371,270.301819 631.055603,280.072296 613.944092,283.292816 
	C592.692810,287.292450 573.277039,277.100311 565.146912,257.206940 
	C552.551514,226.387817 567.956909,185.903214 597.709717,171.633224 
	C629.405823,156.431137 663.274353,177.356522 664.018250,212.434418 
	C664.346069,227.893112 661.517944,242.414551 653.000061,255.944672 
z"/>
<path fill="#040506" opacity="1.000000" stroke="none" 
	d="
M896.538513,263.533081 
	C877.531677,284.544342 847.110413,290.147125 825.387268,276.512085 
	C811.137756,267.568024 803.838379,254.100540 803.133789,237.514969 
	C802.128113,213.843704 810.317627,193.894638 829.447449,179.253510 
	C848.039612,165.023834 875.406067,163.981705 893.274658,176.733688 
	C906.333618,186.053223 912.670410,199.206512 913.244873,215.029037 
	C913.901917,233.127975 908.742798,249.399231 896.538513,263.533081 
z"/>
<path fill="#040506" opacity="1.000000" stroke="none" 
	d="
M1406.812988,164.223724 
	C1432.338623,168.252670 1444.958252,183.427597 1444.039551,208.761169 
	C1414.507935,208.761169 1384.963867,208.761169 1355.426636,208.761169 
	C1359.955811,188.632172 1376.730591,163.903519 1406.812988,164.223724 
z"/>
<path fill="#060708" opacity="1.000000" stroke="none" 
	d="
M1245.054443,415.144592 
	C1241.583984,415.144653 1238.600952,415.144653 1235.555054,415.144653 
	C1236.818481,408.850677 1241.124634,405.342163 1247.487793,405.149445 
	C1253.783569,404.958801 1258.059937,408.200012 1259.916382,415.144531 
	C1255.010376,415.144531 1250.276123,415.144531 1245.054443,415.144592 
z"/>
<path fill="#050607" opacity="1.000000" stroke="none" 
	d="
M1449.744141,433.048096 
	C1441.193359,434.966614 1434.755127,431.469666 1432.524902,423.987885 
	C1430.479126,417.124878 1434.083618,409.491516 1440.484375,407.131653 
	C1447.591064,404.511536 1454.989990,407.628540 1457.917480,414.475952 
	C1461.028687,421.752625 1457.960571,429.030487 1449.744141,433.048096 
z"/>
<path fill="#060708" opacity="1.000000" stroke="none" 
	d="
M1078.616699,410.681396 
	C1084.450928,405.641235 1090.196167,404.868744 1095.723145,408.134552 
	C1100.774170,411.119141 1103.147339,416.888763 1101.921509,423.202850 
	C1100.862183,428.658813 1096.558716,432.654602 1090.642700,433.675598 
	C1085.650391,434.537140 1079.964111,432.156860 1077.373413,427.682251 
	C1074.075684,421.986389 1074.330811,416.316467 1078.616699,410.681396 
z"/>
</svg>